<svg width="50" height="50" viewBox="0 0 50 50" fill="none" xmlns="http://www.w3.org/2000/svg">
<g clip-path="url(#clip0)">
<path d="M32.8124 19.6396C32.8124 27.8378 26.1668 34.4834 17.9686 34.4834C9.77086 34.4834 3.12524 27.8378 3.12524 19.6396C3.12524 11.4414 9.77086 4.79581 17.9686 4.79581C26.1668 4.79581 32.8124 11.4414 32.8124 19.6396Z" fill="#C1DBDC"/>
<path d="M47.6562 43.0772H45.3195C44.8877 43.0772 44.5381 42.7271 44.5381 42.2958C44.5381 41.8644 44.8877 41.5148 45.3195 41.5148H46.8752V39.6373C46.8752 39.2054 47.2243 38.8558 47.6562 38.8558C48.088 38.8558 48.4376 39.2054 48.4376 39.6373V42.2958C48.4376 42.7271 48.088 43.0772 47.6562 43.0772Z" fill="#4C241D"/>
<path d="M4.68045 43.0772H2.34379C1.91196 43.0772 1.56238 42.7271 1.56238 42.2958V39.6373C1.56238 39.2054 1.91196 38.8558 2.34379 38.8558C2.77563 38.8558 3.12521 39.2054 3.12521 39.6373V41.5148H4.68045C5.11228 41.5148 5.46186 41.8644 5.46186 42.2958C5.46186 42.7271 5.11228 43.0772 4.68045 43.0772Z" fill="#4C241D"/>
<path d="M47.6562 15.2672C47.2243 15.2672 46.8752 14.9171 46.8752 14.4857V12.6082H45.3195C44.8877 12.6082 44.5381 12.2586 44.5381 11.8272C44.5381 11.3958 44.8877 11.0458 45.3195 11.0458H47.6562C48.088 11.0458 48.4376 11.3958 48.4376 11.8272V14.4857C48.4376 14.9171 48.088 15.2672 47.6562 15.2672V15.2672Z" fill="#4C241D"/>
<path d="M2.34379 15.2672C1.91196 15.2672 1.56238 14.9171 1.56238 14.4857V11.8272C1.56238 11.3958 1.91196 11.0458 2.34379 11.0458H4.68045C5.11228 11.0458 5.46186 11.3958 5.46186 11.8272C5.46186 12.2586 5.11228 12.6082 4.68045 12.6082H3.12521V14.4857C3.12521 14.9171 2.77563 15.2672 2.34379 15.2672Z" fill="#4C241D"/>
<path d="M42.1876 27.452C42.1876 27.452 34.4923 36.8272 25 36.8272C15.5076 36.8272 7.81238 27.452 7.81238 27.452C7.81238 27.452 15.5076 18.0772 25 18.0772C34.4923 18.0772 42.1876 27.452 42.1876 27.452V27.452Z" fill="white"/>
<path d="M25 37.6082C15.2506 37.6082 7.53255 28.342 7.208 27.9478C6.97241 27.6594 6.97241 27.2446 7.208 26.9567C7.53255 26.562 15.2506 17.2958 25 17.2958C34.7498 17.2958 42.4674 26.562 42.792 26.9567C43.0276 27.2446 43.0276 27.6599 42.792 27.9478C42.4674 28.342 34.7498 37.6082 25 37.6082ZM8.8522 27.4516C10.5813 29.3501 17.2332 36.0458 25 36.0458C32.7779 36.0458 39.4204 29.3519 41.1478 27.4524C39.4186 25.5543 32.7668 18.8582 25 18.8582C17.222 18.8582 10.5795 25.5521 8.8522 27.4516V27.4516Z" fill="#4C241D"/>
<path d="M34.3752 27.452C34.3752 32.6295 30.1775 36.8272 25 36.8272C19.8224 36.8272 15.6252 32.6295 15.6252 27.452C15.6252 22.2744 19.8224 18.0772 25 18.0772C30.1775 18.0772 34.3752 22.2744 34.3752 27.452V27.452Z" fill="#9DC1E4"/>
<path d="M25 37.6082C19.4 37.6082 14.8438 33.0525 14.8438 27.452C14.8438 21.8515 19.4 17.2958 25 17.2958C30.6 17.2958 35.1562 21.8515 35.1562 27.452C35.1562 33.0525 30.6 37.6082 25 37.6082V37.6082ZM25 18.8582C20.2614 18.8582 16.4062 22.7134 16.4062 27.452C16.4062 32.1906 20.2614 36.0458 25 36.0458C29.7385 36.0458 33.5938 32.1906 33.5938 27.452C33.5938 22.7134 29.7385 18.8582 25 18.8582V18.8582Z" fill="#4C241D"/>
<path d="M25 32.5433C22.1926 32.5433 19.9091 30.2594 19.9091 27.452C19.9091 24.645 22.1926 22.3611 25 22.3611C27.8078 22.3611 30.0908 24.645 30.0908 27.452C30.0908 30.2594 27.8078 32.5433 25 32.5433ZM25 23.9235C23.0545 23.9235 21.4715 25.5065 21.4715 27.452C21.4715 29.3975 23.0545 30.9804 25 30.9804C26.9455 30.9804 28.5284 29.3975 28.5284 27.452C28.5284 25.5065 26.9455 23.9235 25 23.9235Z" fill="#4C241D"/>
<path d="M29.6876 23.9365C29.6876 25.0152 28.8132 25.8896 27.7345 25.8896C26.6558 25.8896 25.7814 25.0152 25.7814 23.9365C25.7814 22.8578 26.6558 21.9834 27.7345 21.9834C28.8132 21.9834 29.6876 22.8578 29.6876 23.9365Z" fill="#A9BA5A"/>
<path d="M27.7345 26.671C26.2267 26.671 25 25.4439 25 23.9365C25 22.4287 26.2267 21.202 27.7345 21.202C29.2419 21.202 30.4686 22.4287 30.4686 23.9365C30.4686 25.4439 29.2419 26.671 27.7345 26.671V26.671ZM27.7345 22.7644C27.0881 22.7644 26.5624 23.2901 26.5624 23.9365C26.5624 24.5829 27.0881 25.1082 27.7345 25.1082C28.3805 25.1082 28.9062 24.5829 28.9062 23.9365C28.9062 23.2901 28.3805 22.7644 27.7345 22.7644Z" fill="#4C241D"/>
<path d="M25 14.171C23.7058 14.171 22.6562 13.1214 22.6562 11.8272C22.6562 10.5326 23.7058 9.48343 25 9.48343C26.2941 9.48343 27.3438 10.5326 27.3438 11.8272C27.3438 13.1214 26.2941 14.171 25 14.171Z" fill="#FC8C29"/>
<path d="M25 14.952C23.2767 14.952 21.8752 13.5501 21.8752 11.8272C21.8752 10.1039 23.2767 8.702 25 8.702C26.7233 8.702 28.1252 10.1039 28.1252 11.8272C28.1252 13.5501 26.7233 14.952 25 14.952ZM25 10.2644C24.1386 10.2644 23.4376 10.9653 23.4376 11.8272C23.4376 12.6887 24.1386 13.3896 25 13.3896C25.8614 13.3896 26.5624 12.6887 26.5624 11.8272C26.5624 10.9653 25.8614 10.2644 25 10.2644Z" fill="#4C241D"/>
<path d="M22.6562 39.952H27.3438V44.6396H22.6562V39.952Z" fill="#F53E28"/>
<path d="M27.3438 45.421H22.6562C22.2243 45.421 21.8752 45.071 21.8752 44.6396V39.952C21.8752 39.5206 22.2243 39.171 22.6562 39.171H27.3438C27.7756 39.171 28.1252 39.5206 28.1252 39.952V44.6396C28.1252 45.071 27.7756 45.421 27.3438 45.421ZM23.4376 43.8582H26.5624V40.7334H23.4376V43.8582Z" fill="#4C241D"/>
<path d="M47.6561 36.0458C47.2243 36.0458 46.8752 35.6962 46.8752 35.2644V18.0772C46.8752 17.6458 47.2243 17.2958 47.6561 17.2958C48.0879 17.2958 48.4375 17.6458 48.4375 18.0772V35.2644C48.4375 35.6962 48.0879 36.0458 47.6561 36.0458Z" fill="#4C241D"/>
<path d="M2.3438 36.0458C1.91196 36.0458 1.56238 35.6962 1.56238 35.2644V18.0772C1.56238 17.6458 1.91196 17.2958 2.3438 17.2958C2.77563 17.2958 3.12521 17.6458 3.12521 18.0772V35.2644C3.12521 35.6962 2.77563 36.0458 2.3438 36.0458Z" fill="#4C241D"/>
<path d="M49.2185 26.671C49.2185 27.5338 48.5193 28.2334 47.6561 28.2334C46.7934 28.2334 46.0938 27.5338 46.0938 26.671C46.0938 25.8078 46.7934 25.1082 47.6561 25.1082C48.5193 25.1082 49.2185 25.8078 49.2185 26.671Z" fill="#A9BA5A"/>
<path d="M47.6562 29.0144C46.3638 29.0144 45.3123 27.9634 45.3123 26.671C45.3123 25.3786 46.3638 24.3272 47.6562 24.3272C48.9485 24.3272 50 25.3786 50 26.671C50 27.9634 48.9485 29.0144 47.6562 29.0144V29.0144ZM47.6562 25.8896C47.2252 25.8896 46.8752 26.2401 46.8752 26.671C46.8752 27.1015 47.2252 27.452 47.6562 27.452C48.0871 27.452 48.4376 27.1015 48.4376 26.671C48.4376 26.2401 48.0871 25.8896 47.6562 25.8896Z" fill="#4C241D"/>
<path d="M3.90618 26.671C3.90618 27.5338 3.20657 28.2334 2.34379 28.2334C1.48101 28.2334 0.781403 27.5338 0.781403 26.671C0.781403 25.8078 1.48101 25.1082 2.34379 25.1082C3.20657 25.1082 3.90618 25.8078 3.90618 26.671Z" fill="#9DC1E4"/>
<path d="M2.3438 29.0144C1.05143 29.0144 0 27.9634 0 26.671C0 25.3786 1.05143 24.3272 2.3438 24.3272C3.63618 24.3272 4.68761 25.3786 4.68761 26.671C4.68761 27.9634 3.63618 29.0144 2.3438 29.0144ZM2.3438 25.8896C1.91286 25.8896 1.56239 26.2401 1.56239 26.671C1.56239 27.1015 1.91286 27.452 2.3438 27.452C2.77475 27.452 3.12522 27.1015 3.12522 26.671C3.12522 26.2401 2.77475 25.8896 2.3438 25.8896Z" fill="#4C241D"/>
<path d="M10.9376 12.6082H8.59379C8.16196 12.6082 7.81238 12.2586 7.81238 11.8272C7.81238 11.3958 8.16196 11.0458 8.59379 11.0458H10.9376C11.3694 11.0458 11.7186 11.3958 11.7186 11.8272C11.7186 12.2586 11.3694 12.6082 10.9376 12.6082Z" fill="#4C241D"/>
<path d="M41.4062 12.6082H39.0624C38.6305 12.6082 38.2814 12.2586 38.2814 11.8272C38.2814 11.3958 38.6305 11.0458 39.0624 11.0458H41.4062C41.838 11.0458 42.1876 11.3958 42.1876 11.8272C42.1876 12.2586 41.838 12.6082 41.4062 12.6082Z" fill="#4C241D"/>
<path d="M18.75 12.6082H14.8438C14.412 12.6082 14.0624 12.2586 14.0624 11.8272C14.0624 11.3958 14.412 11.0458 14.8438 11.0458H18.75C19.1818 11.0458 19.5314 11.3958 19.5314 11.8272C19.5314 12.2586 19.1818 12.6082 18.75 12.6082Z" fill="#4C241D"/>
<path d="M35.1562 12.6082H31.25C30.8181 12.6082 30.4686 12.2586 30.4686 11.8272C30.4686 11.3958 30.8181 11.0458 31.25 11.0458H35.1562C35.588 11.0458 35.9376 11.3958 35.9376 11.8272C35.9376 12.2586 35.588 12.6082 35.1562 12.6082Z" fill="#4C241D"/>
<path d="M10.9376 43.0772H8.59379C8.16196 43.0772 7.81238 42.7271 7.81238 42.2958C7.81238 41.8644 8.16196 41.5148 8.59379 41.5148H10.9376C11.3694 41.5148 11.7186 41.8644 11.7186 42.2958C11.7186 42.7271 11.3694 43.0772 10.9376 43.0772Z" fill="#4C241D"/>
<path d="M41.4062 43.0772H39.0624C38.6305 43.0772 38.2814 42.7271 38.2814 42.2958C38.2814 41.8644 38.6305 41.5148 39.0624 41.5148H41.4062C41.838 41.5148 42.1876 41.8644 42.1876 42.2958C42.1876 42.7271 41.838 43.0772 41.4062 43.0772Z" fill="#4C241D"/>
<path d="M18.75 43.0772H14.8438C14.412 43.0772 14.0624 42.7271 14.0624 42.2958C14.0624 41.8644 14.412 41.5148 14.8438 41.5148H18.75C19.1818 41.5148 19.5314 41.8644 19.5314 42.2958C19.5314 42.7271 19.1818 43.0772 18.75 43.0772Z" fill="#4C241D"/>
<path d="M35.1562 43.0772H31.25C30.8181 43.0772 30.4686 42.7271 30.4686 42.2958C30.4686 41.8644 30.8181 41.5148 31.25 41.5148H35.1562C35.588 41.5148 35.9376 41.8644 35.9376 42.2958C35.9376 42.7271 35.588 43.0772 35.1562 43.0772Z" fill="#4C241D"/>
</g>
<defs>
<clipPath id="clip0">
<rect width="50" height="50" fill="white"/>
</clipPath>
</defs>
</svg>
